<svg xmlns="http://www.w3.org/2000/svg" width="38.845" height="38.85" viewBox="0 0 38.845 38.85">
  <g id="Activities" transform="translate(2322.348 -1153.575)">
    <path id="Path_9919" data-name="Path 9919" d="M415.285,395a5.641,5.641,0,0,1-4.645-6.123,5.544,5.544,0,0,1,11.034.035,5.639,5.639,0,0,1-4.668,6.077H418.8a5.538,5.538,0,0,1,5.673,5.661c0,.416.012.843,0,1.259a1.37,1.37,0,0,1-1.409,1.4q-6.915.017-13.818,0a1.328,1.328,0,0,1-1.386-1.178,8.921,8.921,0,0,1,.208-3.177,5.568,5.568,0,0,1,5.268-3.963C413.991,394.991,414.638,395,415.285,395Z" transform="translate(-2719.09 778.005)" fill="#fc4f08"/>
    <path id="Path_9920" data-name="Path 9920" d="M557.622,528a5.546,5.546,0,1,1-5.523,5.557A5.555,5.555,0,0,1,557.622,528Z" transform="translate(-2846.708 650.554)" fill="#ccc"/>
    <path id="Path_9921" data-name="Path 9921" d="M323.961,544.806v-3.293a1.382,1.382,0,0,1,1.5-1.514h6.713a1.4,1.4,0,0,1,1.49,1.49V548.2a1.375,1.375,0,0,1-1.479,1.49h-6.759a1.389,1.389,0,0,1-1.467-1.467C323.949,547.094,323.961,545.95,323.961,544.806Z" transform="translate(-2644.923 639.94)" fill="#ccc"/>
    <path id="Path_9922" data-name="Path 9922" d="M317.595,323.608h-3.986a1.392,1.392,0,0,1-1.34-2.126c1.34-2.692,2.692-5.384,4.032-8.076a1.334,1.334,0,0,1,1.317-.809,1.372,1.372,0,0,1,1.306.832c1.259,2.53,2.53,5.049,3.79,7.579.092.185.185.358.289.531a1.376,1.376,0,0,1-1.2,2.068C320.39,323.631,318.992,323.608,317.595,323.608Z" transform="translate(-2634.409 841.07)" fill="#ccc"/>
    <path id="Path_9923" data-name="Path 9923" d="M560.134,322.949a6.548,6.548,0,0,1-.716-.266c-.531-.266-1.028-.578-1.56-.832a.705.705,0,0,0-.531,0c-.531.254-1.04.566-1.56.843a1.393,1.393,0,0,1-2.091-1.444c.1-.659.22-1.306.289-1.964a.749.749,0,0,0-.15-.52c-.427-.474-.878-.913-1.329-1.375a1.334,1.334,0,0,1-.37-1.433,1.35,1.35,0,0,1,1.167-.97c.566-.081,1.144-.185,1.71-.254a.607.607,0,0,0,.543-.4c.231-.555.508-1.1.763-1.652a1.4,1.4,0,0,1,2.6.012c.254.555.531,1.086.763,1.652a.611.611,0,0,0,.555.393c.589.081,1.178.162,1.756.266a1.362,1.362,0,0,1,.809,2.288c-.451.508-.947.97-1.41,1.467a.662.662,0,0,0-.15.485c.092.67.208,1.34.335,2.01A1.46,1.46,0,0,1,560.134,322.949Z" transform="translate(-2846.656 841.775)" fill="#ccc"/>
    <path id="Path_9924" data-name="Path 9924" d="M394.425,317.3c-.416-.82-.82-1.629-1.225-2.438a19.06,19.06,0,0,1,18.59-.82,2.824,2.824,0,0,0-1.617,2.23A16.681,16.681,0,0,0,394.425,317.3Z" transform="translate(-2706.167 841.585)" fill="#ccc"/>
    <path id="Path_9925" data-name="Path 9925" d="M409.3,610.188a3.135,3.135,0,0,0,1.271-2.438A16.783,16.783,0,0,0,425.3,607.3c.647.682,1.282,1.363,1.929,2.057a18.963,18.963,0,0,1-9.2,2.646A19.24,19.24,0,0,1,409.3,610.188Z" transform="translate(-2720.407 580.416)" fill="#ccc"/>
    <path id="Path_9926" data-name="Path 9926" d="M315.751,432.383a3.6,3.6,0,0,0-2.738.659c-.22-.867-.462-1.664-.624-2.472a19.2,19.2,0,0,1,.751-10.271.5.5,0,0,1,.578-.4c.832.023,1.664.012,2.565.012A16.6,16.6,0,0,0,315.751,432.383Z" transform="translate(-2634.357 746.171)" fill="#ccc"/>
    <path id="Path_9927" data-name="Path 9927" d="M610.4,427.785a16.51,16.51,0,0,0-1.1-11.75,2.933,2.933,0,0,0,3.027-.035,19.254,19.254,0,0,1,.555,13.206C612.05,428.732,611.253,428.281,610.4,427.785Z" transform="translate(-2897.3 749.614)" fill="#ccc"/>
  </g>
</svg>
