<svg xmlns="http://www.w3.org/2000/svg" width="37.849" height="37.83" viewBox="0 0 37.849 37.83">
  <g id="Bookstore" transform="translate(1860.591 -1004.085)">
    <path id="Path_9891" data-name="Path 9891" d="M325.112,433.287h-36.2a1.652,1.652,0,0,1-.808-.808v-.591c.473-1.015,1.428-.65,2.246-.749V408.333a6.092,6.092,0,0,0,5.32-1.133c.059.039.1.059.138.089a5.942,5.942,0,0,0,7.211.049.312.312,0,0,1,.443.02,5.941,5.941,0,0,0,7.093,0,.349.349,0,0,1,.473,0,5.864,5.864,0,0,0,5.95.65,13.505,13.505,0,0,0,1.419-.788,6.077,6.077,0,0,0,5.31,1.1v22.826c.286,0,.542.02.8,0a1.3,1.3,0,0,1,1.419.739v.591A1.693,1.693,0,0,1,325.112,433.287ZM307,411.584a4.03,4.03,0,0,0-2.995-.916c-2.581.03-5.172.01-7.753.01-.916,0-1.33.414-1.33,1.33v16.107c0,.916.414,1.33,1.33,1.33h21.5c.916,0,1.34-.414,1.34-1.32V411.988c0-.887-.424-1.3-1.32-1.31-2.621,0-5.241.02-7.871-.01A3.935,3.935,0,0,0,307,411.584Z" transform="translate(-2148.662 608.628)" fill="#ccc"/>
    <path id="Path_9892" data-name="Path 9892" d="M291.514,288H322.1a1.652,1.652,0,0,1,.877.926c.207.443.453.877.65,1.32a27.74,27.74,0,0,1,2.01,4.4v.887c-.02.079-.049.158-.069.246a3.6,3.6,0,0,1-2.9,2.955,3.548,3.548,0,0,1-3.822-1.4,8.97,8.97,0,0,1-.818-1.625,3.746,3.746,0,0,1-3.684,3.133c-1.862.049-3.29-1.162-3.842-3.261-.473,2.029-1.7,3.231-3.763,3.231-2.079.01-3.32-1.2-3.8-3.241a3.8,3.8,0,0,1-3.655,3.261,3.73,3.73,0,0,1-2.591-.906,3.841,3.841,0,0,1-1.31-2.463c-.039.187-.069.286-.089.384a3.617,3.617,0,0,1-2.778,2.857,3.679,3.679,0,0,1-3.832-1.222,4.194,4.194,0,0,1-.887-1.96v-.739a17.108,17.108,0,0,1,.69-1.882c.68-1.359,1.419-2.68,2.118-4.029A1.907,1.907,0,0,1,291.514,288Z" transform="translate(-2148.391 716.085)" fill="#ccc"/>
    <path id="Path_9895" data-name="Path 9895" d="M500.028,479.324H491.3V466.409A1.237,1.237,0,0,1,492.7,465h7.339C500.028,469.778,500.028,474.536,500.028,479.324Zm-4.246-8.856h-1.359a1.109,1.109,0,1,0,.02,2.217q1.33.015,2.66,0a1.109,1.109,0,1,0,.02-2.217C496.669,470.458,496.226,470.468,495.782,470.468Zm0,4.433c-.453,0-.906-.01-1.369,0a1.109,1.109,0,1,0-.01,2.217c.906.01,1.823.01,2.729,0a1.1,1.1,0,1,0-.02-2.207C496.669,474.9,496.226,474.9,495.782,474.9Z" transform="translate(-2331.843 556.522)" fill="#fc4f08"/>
    <path id="Path_9896" data-name="Path 9896" d="M380.11,465h7.329a1.225,1.225,0,0,1,1.389,1.379v12.935H380.1C380.11,474.556,380.11,469.808,380.11,465Zm4.2,5.468h-1.33a1.11,1.11,0,0,0-1.182,1.1,1.1,1.1,0,0,0,1.162,1.113q1.33.015,2.66,0a1.11,1.11,0,1,0-.02-2.217Zm-.039,6.65c.463,0,.936.01,1.4,0a1.1,1.1,0,0,0,1.113-1.094,1.079,1.079,0,0,0-1.123-1.113c-.906-.01-1.823-.01-2.729,0a1.084,1.084,0,0,0-1.123,1.113,1.1,1.1,0,0,0,1.143,1.1C383.38,477.127,383.824,477.117,384.267,477.117Z" transform="translate(-2231.598 556.522)" fill="#fc4f08"/>
  </g>
</svg>
