<svg xmlns="http://www.w3.org/2000/svg" width="45.732" height="37.83" viewBox="0 0 45.732 37.83">
  <g id="Childern" transform="translate(1919.004 -1007.366)">
    <path id="Path_9887" data-name="Path 9887" d="M285.164,435.76c1,0,2.006-.011,3.021,0a3.523,3.523,0,0,1,3.517,2.8q1.587,7.011,3.131,14.023c.176.794,0,1-.838,1.014-.639,0-1.279-.011-1.918.011a.934.934,0,0,0-1.036,1.047c-.022.948,0,1.9-.011,2.844a1.953,1.953,0,1,1-3.9.1c-.033-.639,0-1.279-.011-1.918a1.953,1.953,0,1,0-3.9,0c-.011.6.011,1.2-.011,1.8a1.966,1.966,0,1,1-3.925-.022c-.011-.9.011-1.819,0-2.723-.011-.761-.342-1.091-1.1-1.113-.617-.011-1.235,0-1.852,0-.86,0-1.025-.21-.827-1.058.584-2.635,1.18-5.281,1.775-7.916a1.248,1.248,0,0,0,.066-.4c-.011-.143-.055-.353-.143-.386a.541.541,0,0,0-.452.077c-.375.331-.717.706-1.08,1.058a2.012,2.012,0,0,1-2.9.143,2.064,2.064,0,0,1,.033-2.966c1.411-1.433,2.822-2.877,4.277-4.255a7.672,7.672,0,0,1,5.259-2.117c.937-.066,1.885-.044,2.833-.044Z" transform="translate(-2191.154 585.644)" fill="#ccc"/>
    <path id="Path_9888" data-name="Path 9888" d="M515.8,448.441v-8.478a4.094,4.094,0,0,1,4.366-4.355c2.106,0,4.222.011,6.328-.011a2.769,2.769,0,0,1,2.128.893c1.819,1.9,3.649,3.792,5.457,5.7a1.976,1.976,0,0,1,.011,2.811,1.949,1.949,0,0,1-2.811-.044c-.9-.871-1.775-1.786-2.679-2.657a3.336,3.336,0,0,0-.761-.408,2.954,2.954,0,0,0-.276.871c-.022,4.763-.011,9.514-.011,14.277a3.149,3.149,0,0,1-.088.915,1.958,1.958,0,0,1-2.073,1.411,1.981,1.981,0,0,1-1.753-2c-.033-1.213,0-2.436-.011-3.66a3.211,3.211,0,0,0-.088-.86,1.955,1.955,0,0,0-2.106-1.367,1.89,1.89,0,0,0-1.687,1.775c-.044,1.257-.011,2.514-.033,3.77a3.536,3.536,0,0,1-.132,1.025,1.936,1.936,0,0,1-2.106,1.279A1.956,1.956,0,0,1,515.8,457.4c0-2.966.011-5.964,0-8.963Z" transform="translate(-2407.943 585.785)" fill="#ccc"/>
    <path id="Path_9889" data-name="Path 9889" d="M342.225,320.345a5.945,5.945,0,1,1,5.8-6.085A5.98,5.98,0,0,1,342.225,320.345Z" transform="translate(-2248.083 698.91)" fill="#fc4f08"/>
    <path id="Path_9890" data-name="Path 9890" d="M522.209,320.467a5.943,5.943,0,1,1,5.876-6.019A6,6,0,0,1,522.209,320.467Z" transform="translate(-2408.289 698.799)" fill="#fc4f08"/>
  </g>
</svg>
