<svg xmlns="http://www.w3.org/2000/svg" width="49.094" height="38.85" viewBox="0 0 49.094 38.85">
  <g id="Flowershops" transform="translate(2894.767 -1156)">
    <path id="Path_9932" data-name="Path 9932" d="M282.089,384.82c.03.293.071.444.071.6,0,2.808-.01,5.627,0,8.435q0,6.212.01,12.415c0,.475.192.646.646.636.889-.02,1.768.01,2.657,0,.485-.01.727.172.717.677q-.015,1.288,0,2.576c.01.455-.2.677-.647.677-.263,0-.525.01-.778.01H238.5c-1.4,0-1.4,0-1.4-1.414,0-.626.01-1.253,0-1.879-.01-.465.2-.667.657-.657.778.01,1.566,0,2.344,0,.939-.01.97-.03.97-.97V389.194c0-1.2-.01-2.394.01-3.6.01-.758.071-.768.818-.768,3.152,0,6.3-.03,9.445-.03h29.537C281.25,384.82,281.644,384.82,282.089,384.82ZM254,397.245V388.5c0-.95-.01-.95-.96-.96h-8.354c-.889,0-.95.061-.95.919v17.566c0,.828.04.869.909.869h8.435c.909,0,.919-.01.919-.909Zm16-7c.495-1.081,1.071-2.02,2.313-1.869,1.343.162,1.808,1.222,1.95,2.475,1.152-.343,2.232-.364,2.919.707.727,1.152.152,2.111-.747,2.95.859.758,1.707,1.485,1.333,2.727-.434,1.424-1.626,1.273-2.818,1.152a2.246,2.246,0,0,1-1.222,2.687c-1.313.586-2.142-.212-2.879-1.162-1.172,1.475-3.182,1.3-3.727-1.03a13.044,13.044,0,0,0-3.374,4.192c.4.02.636.04.859.04h13.91c.97,0,.97,0,.97-1.02V388.608c0-1.081-.01-1.081-1.081-1.081H258.158c-1.081,0-1.081,0-1.081,1.081v13.445c0,.152.01.313.01.465-.01.434.192.6.616.586.99-.02,1.98.02,2.97-.02a1.134,1.134,0,0,0,.747-.424,4.935,4.935,0,0,0,.96-4.616,6.955,6.955,0,0,0-1.253-2.445c.273,1.051.545,1.99.737,2.94a3.548,3.548,0,0,1-.03,1.384c-.111.545-.414.657-.838.293a7.309,7.309,0,0,1-1.394-1.455,6.608,6.608,0,0,1-.657-5.344c.152-.667.354-1.313.576-2.121a16.974,16.974,0,0,1,3.354,3.8,8.334,8.334,0,0,1,1.232,4.7c.879-.8,1.647-1.5,2.475-2.253-1.02-.495-1.929-1.081-1.808-2.323.121-1.192,1.091-1.667,2.111-2.071-.626-.99-.98-2-.121-2.909C267.745,389.235,268.866,389.578,270,390.245Zm-.566,4.717a1.975,1.975,0,0,0,1.97,2.061,2.047,2.047,0,0,0,.061-4.091A2,2,0,0,0,269.432,394.962Z" transform="translate(-3131.863 784.009)" fill="#ccc"/>
    <path id="Path_9933" data-name="Path 9933" d="M280.772,267.586c-.586,1.354-1.7,1.455-3,1.485a2.775,2.775,0,0,1-2.95-1.606c-.364.434-.636.737-.879,1.061a1.174,1.174,0,0,1-1.061.505,16.365,16.365,0,0,0-2.111,0,1.442,1.442,0,0,1-1.444-.687,9.293,9.293,0,0,0-.677-.8c-.333.374-.647.687-.919,1.051a.984.984,0,0,1-.929.434,3.567,3.567,0,0,0-.465,0c-.727,0-1.465.03-2.182-.01-.838-.051-.98-1.01-1.667-1.354a2.052,2.052,0,0,0-.485.444,1.845,1.845,0,0,1-2.03.939,8.927,8.927,0,0,1-2.091-.071c-.576-.2-1-.828-1.535-1.3a2.019,2.019,0,0,0-.434.394,1.96,1.96,0,0,1-2.172.97,1.713,1.713,0,0,0-.394,0c-1.162.111-2.232.03-2.859-1.172-.04-.081-.172-.111-.283-.182-.162.141-.364.242-.455.414a1.947,1.947,0,0,1-2.1.95,7.85,7.85,0,0,1-2.081-.081c-.576-.212-.99-.849-1.576-1.394-.293.323-.616.646-.889,1.01a.985.985,0,0,1-.919.455c-.778-.03-1.566-.03-2.344,0a.768.768,0,0,1-.869-.6c-.273-.838-.556-1.677-.869-2.505a.807.807,0,0,1,.192-.909c1.02-1.242,1.99-2.535,3.03-3.758a2.371,2.371,0,0,0,.6-1.7c-.02-1.6-.131-1.576,1.576-1.576h37.961c1.9,0,1.556.02,1.535,1.556a2.32,2.32,0,0,0,.6,1.616c1,1.222,1.99,2.465,2.99,3.687a1.1,1.1,0,0,1,.232,1.263c-.323.737-.525,1.515-.778,2.283-.141.434-.4.717-.909.626a2.564,2.564,0,0,0-.394,0c-.727,0-1.465.04-2.182-.01C281.7,268.95,281.57,267.99,280.772,267.586Z" transform="translate(-3132.708 898)" fill="#fc4f08"/>
    <path id="Path_9937" data-name="Path 9937" d="M356.848,501.119c0,.768-.111.889-.768.808-.849-.111-1.7-.283-2.546-.4-.384-.051-.434-.283-.434-.606a.43.43,0,0,1,.475-.485q1.364-.015,2.727,0C356.838,500.443,356.868,500.816,356.848,501.119Z" transform="translate(-3236.149 680.063)" fill="#fc4f08"/>
  </g>
</svg>
