<svg xmlns="http://www.w3.org/2000/svg" width="34.297" height="38.85" viewBox="0 0 34.297 38.85">
  <g id="Insurance" transform="translate(2569.485 -1154.253)">
    <path id="Path_9897" data-name="Path 9897" d="M311.34,367.387a1.493,1.493,0,0,1-.84-1.538q.015-15.646.01-31.3c0-1.042.4-1.447,1.447-1.447h4.28v1.062a3.356,3.356,0,0,0,2.378,3.329,4.6,4.6,0,0,0,1.234.172c2.165.02,4.32.01,6.485.01a3.417,3.417,0,0,0,3.6-3.632v-.931h4.391a1.161,1.161,0,0,1,1.315,1.305v11.078c0,.212-.03.344-.263.415-1.427.465-2.853.941-4.28,1.416a1.306,1.306,0,0,1-.182.03c.051-.132.091-.233.121-.334a1.127,1.127,0,0,0-1-1.406c-.243-.02-.475-.01-.718-.01h-12.97a1.136,1.136,0,0,0-1.194,1.467,1.154,1.154,0,0,0,1.194.8h12.859c.01.02.01.04.02.051-.132.051-.253.1-.384.152a3.34,3.34,0,0,0-1.983,1.811.408.408,0,0,1-.455.273q-5.023-.015-10.057,0a1.138,1.138,0,1,0,0,2.266H326.5v2.3H316.388a1.178,1.178,0,0,0-1.224.759,1.127,1.127,0,0,0,.951,1.5,4.008,4.008,0,0,0,.5.01c3.2,0,6.394.01,9.6-.01.314,0,.435.081.475.4.081.617.233,1.234.364,1.912-.587,0-1.163-.02-1.74,0a1.118,1.118,0,0,0-.334,2.165,2.3,2.3,0,0,0,.6.091c.708.01,1.416-.01,2.125.01a.514.514,0,0,1,.395.192,13.639,13.639,0,0,0,5.433,5.514.244.244,0,0,1,.061.081C326.151,367.387,318.746,367.387,311.34,367.387Zm11.736-26.355h-3.3c-1.164,0-2.327-.01-3.49,0a1.129,1.129,0,0,0-1.163.84,1.146,1.146,0,0,0,1.255,1.427h13.4a1.562,1.562,0,0,0,.486-.061,1.146,1.146,0,0,0,.809-1.143,1.131,1.131,0,0,0-.9-1.042,3.062,3.062,0,0,0-.526-.03C327.456,341.032,325.261,341.032,323.076,341.032Zm-4.593,20.558c.718,0,1.437.01,2.165,0a1.494,1.494,0,0,0,.556-.091,1.126,1.126,0,0,0-.415-2.175q-2.276-.015-4.553,0a1.36,1.36,0,0,0-.4.071,1.132,1.132,0,0,0,.415,2.2C316.985,361.61,317.734,361.59,318.482,361.59Z" transform="translate(-2879.985 825.716)" fill="#ccc"/>
    <path id="Path_9898" data-name="Path 9898" d="M394.533,288a2.343,2.343,0,0,1,1.467.991,10.406,10.406,0,0,1,.536,1.3c.273,0,.627-.01.981,0a1.137,1.137,0,0,1,1.184,1.2c.01.728.01,1.467,0,2.2a1.108,1.108,0,0,1-1.133,1.163q-3.43.015-6.87,0a1.089,1.089,0,0,1-1.133-1.133q-.03-1.138,0-2.276a1.127,1.127,0,0,1,1.194-1.153c.354-.01.7,0,1.072,0a2.218,2.218,0,0,1,.809-1.71,6.568,6.568,0,0,1,1.052-.567C393.966,288,394.249,288,394.533,288Z" transform="translate(-2951.037 866.253)" fill="#fc4f08"/>
    <path id="Path_9899" data-name="Path 9899" d="M507.281,485.309a17.523,17.523,0,0,1-.293,4.3,11.009,11.009,0,0,1-7.234,8.033,1.4,1.4,0,0,1-.911,0,10.938,10.938,0,0,1-7.406-8.873,11.737,11.737,0,0,1-.142-1.892c-.02-1.305-.01-2.6,0-3.905a1.105,1.105,0,0,1,.83-1.174c2.266-.759,4.522-1.518,6.789-2.256a1.521,1.521,0,0,1,.85.02c2.216.718,4.431,1.467,6.647,2.206a1.155,1.155,0,0,1,.88,1.255C507.292,483.792,507.281,484.55,507.281,485.309Zm-9.136,3.025c-.192-.263-.364-.5-.546-.728a1.141,1.141,0,0,0-1.659-.3,1.155,1.155,0,0,0-.172,1.649c.344.476.688.931,1.032,1.406a1.169,1.169,0,0,0,1.791.364c1.265-.769,2.519-1.528,3.784-2.3a1.17,1.17,0,0,0,.526-1.669,1.15,1.15,0,0,0-1.69-.283C500.2,487.08,499.188,487.7,498.146,488.334Z" transform="translate(-3042.479 694.136)" fill="#fc4f08"/>
  </g>
</svg>
