<svg xmlns="http://www.w3.org/2000/svg" width="33.246" height="38.85" viewBox="0 0 33.246 38.85">
  <g id="Jewlery" transform="translate(2445.656 -1154)">
    <path id="Path_9907" data-name="Path 9907" d="M380.7,631.841l-1.882-.143a26.662,26.662,0,0,1-5.047-.77,5.766,5.766,0,0,1-1.169-.466,15.594,15.594,0,0,1,5.123-1.159c-.067.342-.114.627-.171.9a.694.694,0,1,0,1.34.333,7.239,7.239,0,0,0-.019-3.821l-.114-.418a8.094,8.094,0,0,0,8.107.01c-.1.485-.2.9-.266,1.321a6.875,6.875,0,0,0,.152,2.851c.133.485.447.713.836.627a.7.7,0,0,0,.5-.941c-.057-.266-.1-.542-.152-.808a14.355,14.355,0,0,1,5.2,1.121c-.466.162-.846.333-1.255.437a30.473,30.473,0,0,1-6.225.836c-.238.009-.475.047-.713.076C383.54,631.841,382.114,631.841,380.7,631.841Z" transform="translate(-2811.859 561.009)" fill="#fc4f08"/>
    <path id="Path_9908" data-name="Path 9908" d="M333.728,381.605c.447-.162.874-.314,1.274-.456,1.15.542,2.31,1.093,3.545,1.682-.143.9-.276,1.891-.466,2.861a27.971,27.971,0,0,1-4.011,10.027,20.05,20.05,0,0,1-10.217,8.088,5.611,5.611,0,0,1-3.859.01,20.394,20.394,0,0,1-11.253-9.808,30,30,0,0,1-3.26-9.837c-.076-.456-.114-.922-.181-1.416.086-.038.181-.076.266-.124,1-.475,2.005-.941,3-1.426a.45.45,0,0,1,.475-.01,10.986,10.986,0,0,0,1.093.418,2.442,2.442,0,0,0,2.747,2.671,2.865,2.865,0,0,0,1.093,2.2,2.792,2.792,0,0,0,2.4.5,3.092,3.092,0,0,0,2.186,2.718,3.056,3.056,0,0,0,3.346-1.007,3.132,3.132,0,0,0,5.541-1.7,2.8,2.8,0,0,0,3.488-2.69A2.5,2.5,0,0,0,333.728,381.605Z" transform="translate(-2750.956 782.874)" fill="#ccc"/>
    <path id="Path_9909" data-name="Path 9909" d="M376.22,311.475c-.086-.3-.171-.57-.228-.836a.318.318,0,0,1,.038-.266A19.665,19.665,0,0,0,379.052,306a18.27,18.27,0,0,0,13.648.009c.437.713.893,1.521,1.416,2.281.475.684,1.026,1.312,1.549,1.958a.42.42,0,0,1,.1.5,4.544,4.544,0,0,0-.19.732,2.456,2.456,0,0,0-1.787.5,2.481,2.481,0,0,0-.922,1.625,2.85,2.85,0,0,0-3.469,2.215,3.288,3.288,0,0,0-1.891-.076,3.161,3.161,0,0,0-1.6,1.055,3.147,3.147,0,0,0-3.5-.979,2.849,2.849,0,0,0-3.469-2.2,2.609,2.609,0,0,0-.931-1.635A2.439,2.439,0,0,0,376.22,311.475Z" transform="translate(-2814.918 850.867)" fill="#ccc"/>
    <path id="Path_9910" data-name="Path 9910" d="M414.4,277.128a9.73,9.73,0,0,1,1.093-.542,16.754,16.754,0,0,1,6.615-.694,11.6,11.6,0,0,1,4.125.865,7.6,7.6,0,0,1,.76.456c-.3.19-.494.342-.713.447a9.478,9.478,0,0,1-3.136.8,19.524,19.524,0,0,1-6.178-.2,15.878,15.878,0,0,1-1.977-.618,2.312,2.312,0,0,1-.561-.352A.443.443,0,0,1,414.4,277.128Z" transform="translate(-2849.687 878.161)" fill="#fc4f08"/>
    <path id="Path_9911" data-name="Path 9911" d="M438.029,421.9a1.73,1.73,0,1,1-1.73,1.749A1.746,1.746,0,0,1,438.029,421.9Z" transform="translate(-2869.504 745.982)" fill="#fc4f08"/>
    <path id="Path_9912" data-name="Path 9912" d="M489.248,421.9a1.725,1.725,0,1,1-1.749,1.72A1.744,1.744,0,0,1,489.248,421.9Z" transform="translate(-2915.838 745.983)" fill="#fc4f08"/>
    <path id="Path_9913" data-name="Path 9913" d="M401.293,402.765a1.383,1.383,0,1,1,1.369-1.416A1.39,1.39,0,0,1,401.293,402.765Z" transform="translate(-2836.561 765.802)" fill="#fc4f08"/>
    <path id="Path_9914" data-name="Path 9914" d="M532.677,402.766a1.4,1.4,0,0,1-1.378-1.407,1.383,1.383,0,1,1,1.378,1.407Z" transform="translate(-2955.475 765.801)" fill="#fc4f08"/>
    <path id="Path_9915" data-name="Path 9915" d="M569.962,379.036a1.031,1.031,0,1,1-2.062.01,1.031,1.031,0,1,1,2.062-.01Z" transform="translate(-2988.597 785.71)" fill="#fc4f08"/>
    <path id="Path_9916" data-name="Path 9916" d="M372.861,379.063a1.031,1.031,0,1,1-2.062-.048,1.032,1.032,0,1,1,2.062.048Z" transform="translate(-2810.229 785.711)" fill="#fc4f08"/>
    <path id="Path_9917" data-name="Path 9917" d="M350.269,356.973a.712.712,0,0,1-.7.694.69.69,0,0,1-.665-.684.676.676,0,0,1,.656-.684A.686.686,0,0,1,350.269,356.973Z" transform="translate(-2790.412 805.349)" fill="#fc4f08"/>
    <path id="Path_9918" data-name="Path 9918" d="M598.467,356.784a.7.7,0,0,1-.694.694.712.712,0,0,1-.675-.684.692.692,0,0,1,.694-.694A.705.705,0,0,1,598.467,356.784Z" transform="translate(-3015.02 805.528)" fill="#fc4f08"/>
  </g>
</svg>
