<svg xmlns="http://www.w3.org/2000/svg" width="53.515" height="38.85" viewBox="0 0 53.515 38.85">
  <g id="Malls" transform="translate(2690.94 -834.028)">
    <path id="Path_9829" data-name="Path 9829" d="M193.442,392.523h26.23a3.56,3.56,0,0,1,.7.045.832.832,0,0,1,.606,1.122,3.039,3.039,0,0,1-.181.389c-1.945,3.808-3.9,7.607-5.825,11.424a1.254,1.254,0,0,1-1.275.769c-5.4-.018-10.791-.009-16.19-.009h-.787c.109.488.181.923.317,1.339.036.1.28.181.434.181.986.018,1.981.009,2.967.009h17.972c.8,0,1.176.289,1.176.859s-.4.868-1.176.868h-21.69c-.823,0-1.049-.181-1.239-.968q-2.374-10.013-4.749-20.016c-.09-.371-.217-.525-.633-.525-1.474.027-2.949.009-4.423.009a3.03,3.03,0,0,1-.642-.045.78.78,0,0,1-.651-.859.8.8,0,0,1,.687-.787,2.237,2.237,0,0,1,.425-.027h5.5c.8,0,1,.154,1.194.941q.57,2.361,1.122,4.712C193.342,392.143,193.387,392.315,193.442,392.523Z" transform="translate(-2875.317 458.684)" fill="#fc4f08"/>
    <path id="Path_9830" data-name="Path 9830" d="M540.7,582.707c.38-.742.7-1.393,1.049-2.035a.471.471,0,0,1,.344-.172q5.169.081,10.347.181a.406.406,0,0,1,.118.054V590.8H541.993a3.386,3.386,0,0,0,0-2.913c.317,0,.552.009.8,0a2.588,2.588,0,0,0,2.6-2.6,2.549,2.549,0,0,0-2.614-2.569C542.12,582.7,541.46,582.707,540.7,582.707Z" transform="translate(-3199.412 282.049)" fill="#ccc"/>
    <path id="Path_9831" data-name="Path 9831" d="M553.2,265.736c1.393-.181,2.786-.425,4.188-.525a18.744,18.744,0,0,1,6.132.66c.253.072.443.118.443.47-.018,2.569-.009,5.137-.009,7.706a1.339,1.339,0,0,1-.045.226,25.9,25.9,0,0,0-10.709.018Z" transform="translate(-3210.781 568.854)" fill="#ccc"/>
    <path id="Path_9832" data-name="Path 9832" d="M691.4,594.422V584.5a34.013,34.013,0,0,1,7.652,1.556v5.083c0,.787.009,1.583,0,2.37a.857.857,0,0,1-.932.95c-2.18.009-4.351,0-6.53,0A.576.576,0,0,1,691.4,594.422Z" transform="translate(-3336.481 278.41)" fill="#ccc"/>
    <path id="Path_9833" data-name="Path 9833" d="M564.109,386.6c-.705-.072-1.384-.154-2.053-.2-1.076-.063-2.153-.1-3.229-.136-.28-.009-.434-.054-.534-.371a2.578,2.578,0,0,0-2.551-1.863c-.769-.018-1.538,0-2.343,0v-4.559a23.825,23.825,0,0,1,10.718-.018C564.109,381.839,564.109,384.2,564.109,386.6Z" transform="translate(-3210.962 465.46)" fill="#ccc"/>
    <path id="Path_9834" data-name="Path 9834" d="M451.18,278.9v8.321a24.032,24.032,0,0,0-8.149,4.2,2.993,2.993,0,0,1-.045-.416c0-2.008-.009-4.025.018-6.033a1.439,1.439,0,0,1,.317-.868,19.64,19.64,0,0,1,7.552-5.119C450.954,278.954,451.035,278.936,451.18,278.9Z" transform="translate(-3110.534 556.369)" fill="#ccc"/>
    <path id="Path_9835" data-name="Path 9835" d="M572.832,487.138H563c.118-.262.172-.407.235-.543,1.1-2.162,2.207-4.314,3.292-6.476a.642.642,0,0,1,.687-.434c1.863.108,3.726.2,5.608.289C572.832,482.453,572.832,484.813,572.832,487.138Z" transform="translate(-3219.695 373.747)" fill="#ccc"/>
    <path id="Path_9836" data-name="Path 9836" d="M699.043,293.276A24.022,24.022,0,0,0,691.4,289.5v-8.1c.163.054.308.09.443.145a20.155,20.155,0,0,1,6.82,4.794,1.175,1.175,0,0,1,.353.7C699.052,289.07,699.043,291.105,699.043,293.276Z" transform="translate(-3336.481 554.095)" fill="#ccc"/>
    <path id="Path_9837" data-name="Path 9837" d="M699.234,495.248c-2.569-.507-5.074-.995-7.634-1.492V486.8c1.312.407,2.6.76,3.844,1.221,1.176.434,2.306.977,3.446,1.5a.606.606,0,0,1,.326.407C699.234,491.711,699.234,493.511,699.234,495.248Z" transform="translate(-3336.663 367.274)" fill="#ccc"/>
    <path id="Path_9838" data-name="Path 9838" d="M699.052,400.143c-2.56-.886-5.074-1.755-7.652-2.641v-6.8c.579.208,1.113.389,1.637.588a24.4,24.4,0,0,1,5.843,3.41.517.517,0,0,1,.163.353C699.052,396.787,699.052,398.515,699.052,400.143Z" transform="translate(-3336.481 454.681)" fill="#ccc"/>
    <path id="Path_9839" data-name="Path 9839" d="M458.944,390.9v3.754c0,.09-.009.172-.018.289H451.5A21.947,21.947,0,0,1,458.944,390.9Z" transform="translate(-3118.28 454.5)" fill="#ccc"/>
    <path id="Path_9840" data-name="Path 9840" d="M323.211,662.828a1.506,1.506,0,0,1-3.012-.027,1.506,1.506,0,1,1,3.012.027Z" transform="translate(-2998.854 208.558)" fill="#ccc"/>
    <path id="Path_9841" data-name="Path 9841" d="M507.828,664.411a1.506,1.506,0,1,1-.036-3.012,1.506,1.506,0,1,1,.036,3.012Z" transform="translate(-3168.122 208.467)" fill="#ccc"/>
  </g>
</svg>
