<svg xmlns="http://www.w3.org/2000/svg" width="40.68" height="40.68" viewBox="0 0 40.68 40.68">
  <g id="Music" transform="translate(2060.537 -1003)">
    <path id="Path_9863" data-name="Path 9863" d="M410.9,490.586a5.81,5.81,0,0,1-2.309-.985,4.764,4.764,0,0,1,4.861-8.123c.117.053.233.106.413.18v-8.621a1.309,1.309,0,0,1,1.26-1.525q5.973-1.176,11.947-2.362c1.123-.222,1.716.254,1.716,1.377,0,4.258.011,8.526,0,12.783a4.762,4.762,0,1,1-2.68-4.268c.085.042.159.074.275.127v-2.775c-3.379.667-6.736,1.334-10.125,2v.455c0,2.214-.053,4.427.011,6.63a4.83,4.83,0,0,1-4.056,5.01c-.032,0-.064.032-.106.053A11.5,11.5,0,0,1,410.9,490.586Z" transform="translate(-2454.667 553.094)" fill="#ccc"/>
    <path id="Path_9864" data-name="Path 9864" d="M357.269,287.911c.286.074.583.138.868.222a5.61,5.61,0,0,1,4.046,5.264c.021.943-.011,1.885.011,2.817a1.216,1.216,0,0,1-.741,1.282,1.193,1.193,0,0,1-1.43-.381,5.911,5.911,0,0,0-4.66-1.811.843.843,0,0,0-.169.032v.455c0,2.976.011,5.952,0,8.939a4.763,4.763,0,1,1-5.592-4.681,4.892,4.892,0,0,1,3.188.54c.011-.18.021-.307.021-.445,0-3.548.011-7.1-.011-10.644a1.52,1.52,0,0,1,.89-1.6C354.9,287.911,356.083,287.911,357.269,287.911Z" transform="translate(-2400.087 715.1)" fill="#fc4f08"/>
    <path id="Path_9865" data-name="Path 9865" d="M481.112,425.215a1.534,1.534,0,0,1-1.6.89c-6.842-.021-13.684-.011-20.525-.011H458.5v-2.383h.445c6.852,0,13.715.011,20.568-.011a1.52,1.52,0,0,1,1.6.89Z" transform="translate(-2500.968 593.683)" fill="#ccc"/>
    <path id="Path_9866" data-name="Path 9866" d="M287.911,514.49a1.534,1.534,0,0,1,1.6-.89c5.063.021,10.136.011,15.2.011h.5v2.383h-.466c-5.084,0-10.157-.011-15.241.011a1.534,1.534,0,0,1-1.6-.89C287.911,514.913,287.911,514.7,287.911,514.49Z" transform="translate(-2348.437 513.304)" fill="#fc4f08"/>
    <path id="Path_9867" data-name="Path 9867" d="M539.943,335.214a1.534,1.534,0,0,1-1.6.89c-4.512-.021-9.024-.011-13.535-.011H524.3v-2.383h.466c4.522,0,9.045.011,13.567-.011a1.534,1.534,0,0,1,1.6.89C539.943,334.791,539.943,335,539.943,335.214Z" transform="translate(-2559.799 674.151)" fill="#ccc"/>
    <path id="Path_9868" data-name="Path 9868" d="M288,334.49a1.533,1.533,0,0,1,1.6-.89c2.934.032,5.878.011,8.812.011h.445v2.383h-.445c-2.934,0-5.878-.021-8.812.011a1.52,1.52,0,0,1-1.6-.89Z" transform="translate(-2348.526 674.24)" fill="#ccc"/>
    <path id="Path_9869" data-name="Path 9869" d="M287.911,604.49a1.534,1.534,0,0,1,1.6-.89c2.838.032,5.687.011,8.526.011h.424c-.148.794-.286,1.568-.434,2.383h-.392c-2.711,0-5.423-.021-8.134.011a1.52,1.52,0,0,1-1.6-.89C287.911,604.913,287.911,604.7,287.911,604.49Z" transform="translate(-2348.437 432.836)" fill="#fc4f08"/>
    <path id="Path_9870" data-name="Path 9870" d="M288,424.538a1.473,1.473,0,0,1,1.6-.879c.837.042,1.684.011,2.5.011-.148.794-.286,1.557-.434,2.362-.868,0-1.79.032-2.7-.011-.487-.021-.741-.445-.964-.837Z" transform="translate(-2348.526 593.723)" fill="#ccc"/>
    <path id="Path_9871" data-name="Path 9871" d="M638.293,605.113a1.473,1.473,0,0,1-1.6.879c-.8-.042-1.61-.011-2.394-.011.138-.784.265-1.546.413-2.383H635.9c.265,0,.529.021.794,0a1.436,1.436,0,0,1,1.6.879Z" transform="translate(-2658.149 432.848)" fill="#fc4f08"/>
    <path id="Path_9872" data-name="Path 9872" d="M641.333,515.113a1.46,1.46,0,0,1-1.6.879c-.667-.042-1.345-.011-2.033-.011V513.6h1.165c.286,0,.583.021.868,0a1.436,1.436,0,0,1,1.6.879Z" transform="translate(-2661.189 513.316)" fill="#fc4f08"/>
  </g>
</svg>
