<svg xmlns="http://www.w3.org/2000/svg" width="62.604" height="40.68" viewBox="0 0 62.604 40.68">
  <g id="Opticians" transform="translate(2162.944 -1083.253)">
    <path id="Path_9857" data-name="Path 9857" d="M581.8,500.538a7.639,7.639,0,1,1,7.59,7.668A7.65,7.65,0,0,1,581.8,500.538Zm.7-.029a6.921,6.921,0,1,0,7.209-6.877A6.917,6.917,0,0,0,582.5,500.508Z" transform="translate(-2703.631 611.908)" fill="#fc4f08"/>
    <path id="Path_9858" data-name="Path 9858" d="M603.5,520.238a5.519,5.519,0,1,1,5.5,5.509A5.511,5.511,0,0,1,603.5,520.238Z" transform="translate(-2723.212 592.236)" fill="#fc4f08"/>
    <path id="Path_9859" data-name="Path 9859" d="M247.8,500.538a7.639,7.639,0,1,1,7.59,7.668A7.65,7.65,0,0,1,247.8,500.538Zm.7-.029a6.921,6.921,0,1,0,7.209-6.877A6.917,6.917,0,0,0,248.5,500.508Z" transform="translate(-2402.256 611.908)" fill="#fc4f08"/>
    <path id="Path_9860" data-name="Path 9860" d="M269.5,520.238a5.519,5.519,0,1,1,5.5,5.509A5.511,5.511,0,0,1,269.5,520.238Z" transform="translate(-2421.837 592.236)" fill="#fc4f08"/>
    <path id="Path_9861" data-name="Path 9861" d="M223.346,288.787a3.554,3.554,0,0,0-.342-.508q-4.132-5.744-8.264-11.487a13.071,13.071,0,0,0-1.416-1.7A8.961,8.961,0,0,0,206,272.279a2.44,2.44,0,0,0-.654.137,1.294,1.294,0,0,0,.283,2.481,3.674,3.674,0,0,0,.733.01,6.264,6.264,0,0,1,3.682.957,8.474,8.474,0,0,1,2.452,2.374c2.217,3.1,4.454,6.193,6.681,9.289.107.147.186.3.3.488h-4.747a1.877,1.877,0,0,0-1.856-1.563c-2.149-.029-4.308-.02-6.457,0a1.827,1.827,0,0,0-1.748,1.231c-.049.107-.088.225-.127.332h-9.778v-.7c.42,0,.791.01,1.153,0,.4-.01.615-.186.615-.449s-.225-.43-.625-.44c-.381-.01-.772,0-1.162,0-.029-.273-.029-.479-.068-.684a1.3,1.3,0,0,0-1.3-1.162,1.281,1.281,0,0,0-1.3,1.153c-.039.215-.078.43-.127.693h-.7c-.811,0-1.035.1-1.016.469.01.352.215.43,1.055.44h.684v.713h-9.758a1.913,1.913,0,0,0-1.836-1.573c-2.168-.029-4.347-.02-6.525,0a1.774,1.774,0,0,0-1.7,1.192c-.059.127-.107.254-.147.361h-4.757c.117-.186.186-.3.264-.42.742-1.035,1.485-2.071,2.227-3.1,1.621-2.247,3.194-4.523,4.864-6.73a6.591,6.591,0,0,1,6-2.852,2.04,2.04,0,0,0,.84-.117,1.238,1.238,0,0,0,.742-1.407,1.319,1.319,0,0,0-1.241-1.094,8.6,8.6,0,0,0-3.819.42,10.745,10.745,0,0,0-5.079,4q-4.132,5.787-8.293,11.536c-.107.147-.215.3-.313.459a1.327,1.327,0,0,0,.977,2,4.261,4.261,0,0,0,.615.029h6.339c.215,0,.43.02.586.029.147.488.273.889.4,1.328a10.46,10.46,0,0,0-3.78,3.253,10.811,10.811,0,0,0-1.885,4.718h-.723c-1.328,0-2.667.02-4,0h-.322a.9.9,0,0,0,.088,1.788h.147c1.358-.02,2.715-.01,4.073,0,.2,0,.4.02.6.029a10.534,10.534,0,0,0,20.268,3.555,10.308,10.308,0,0,0,.361-6.867,10.447,10.447,0,0,0-5.343-6.466c.147-.479.283-.9.41-1.3h9.768c0,.352-.01.654,0,.957.01.43.02.86.039,1.289a1.091,1.091,0,0,0,.518.928.72.72,0,0,1,.342.723c-.01,1.582,0,3.155,0,4.737v.635c-.2.049-.352.088-.508.137-.352.107-.713.2-1.045.332a1.01,1.01,0,0,0-.742.889c-.01.479.342.713.7.918a1.555,1.555,0,0,0,.225.1,4.988,4.988,0,0,0,3.6.01c.479-.176.947-.43.947-1.006s-.469-.83-.947-1.006c-.42-.147-.86-.254-1.328-.391,0-1.885,0-3.77.01-5.656a.473.473,0,0,1,.205-.342,1.546,1.546,0,0,0,.654-1.436c-.01-.606,0-1.211,0-1.856h9.768c.137.43.264.84.41,1.309a10.921,10.921,0,0,0-4.317,4.112,10.411,10.411,0,0,0-1.416,5.763,10.525,10.525,0,0,0,8.479,9.787,10.341,10.341,0,0,0,9-2.461c.2.146.361.264.518.391,1.2.957,2.422,1.895,3.6,2.882.654.547,1.2.371,1.475.059.371-.43.244-.977-.361-1.465-1.162-.938-2.344-1.866-3.507-2.8-.156-.117-.293-.264-.449-.4a10.354,10.354,0,0,0,1.963-8.82,10.569,10.569,0,0,0-5.47-7.062c.156-.479.283-.889.42-1.328h6.945a3.09,3.09,0,0,0,.674-.049A1.308,1.308,0,0,0,223.346,288.787Zm-37.518,12.649a8.718,8.718,0,1,1-8.742-8.713A8.74,8.74,0,0,1,185.828,301.436Zm32.527.059a8.7,8.7,0,1,1-8.674-8.772A8.711,8.711,0,0,1,218.355,301.495Z" transform="translate(-2323.844 811.009)" fill="#ccc"/>
  </g>
</svg>
