<svg xmlns="http://www.w3.org/2000/svg" width="38.438" height="33.456" viewBox="0 0 38.438 33.456">
  <g id="Pets" transform="translate(2445 -1000.634)">
    <path id="Path_9842" data-name="Path 9842" d="M356.641,485.1c-1.118-.233-2.236-.466-3.345-.7-1.3-.261-2.581-.587-3.9-.764a14.58,14.58,0,0,0-5.75.755,16.521,16.521,0,0,1-3,.559,5.39,5.39,0,0,1-5.778-4.277,5.2,5.2,0,0,1,1.566-5.246c2.162-2.05,4.324-4.11,6.5-6.141a7.758,7.758,0,0,1,10.7,0q3.285,3.075,6.532,6.178A5.14,5.14,0,0,1,361.608,481a5.32,5.32,0,0,1-4.24,3.914,1.144,1.144,0,0,1-.158.028c-.177.019-.354.028-.54.037A.745.745,0,0,0,356.641,485.1Z" transform="translate(-2774.067 548.987)" fill="#fc4f08"/>
    <path id="Path_9843" data-name="Path 9843" d="M378.545,307.129a7.585,7.585,0,0,1-1.594,4.808,3.618,3.618,0,0,1-5.955-.009,7.44,7.44,0,0,1-1.547-5.4,7.63,7.63,0,0,1,1.072-3.616,3.975,3.975,0,0,1,3.588-2.134,3.834,3.834,0,0,1,2.982,1.631A7.86,7.86,0,0,1,378.545,307.129Z" transform="translate(-2805.551 699.853)" fill="#ccc"/>
    <path id="Path_9844" data-name="Path 9844" d="M493.7,307.074a8.129,8.129,0,0,1,1.118-4.165,3.967,3.967,0,0,1,3.56-2.115,3.8,3.8,0,0,1,2.861,1.463,6.848,6.848,0,0,1,1.472,3.541,7.841,7.841,0,0,1-1.165,5.74,3.788,3.788,0,0,1-3.644,1.938,4,4,0,0,1-2.935-1.948A7.867,7.867,0,0,1,493.7,307.074Z" transform="translate(-2918.246 699.842)" fill="#ccc"/>
    <path id="Path_9845" data-name="Path 9845" d="M282.076,399.39a6.526,6.526,0,0,1-.494,2.73,3.047,3.047,0,0,1-5.172,1.016,7.433,7.433,0,0,1-2.05-4.156,6.841,6.841,0,0,1,.317-4.026,3.01,3.01,0,0,1,4.976-1.193,7.165,7.165,0,0,1,2.339,4.613C282.048,398.794,282.067,399.185,282.076,399.39Z" transform="translate(-2719.202 616.323)" fill="#ccc"/>
    <path id="Path_9846" data-name="Path 9846" d="M602.3,399.318a7.642,7.642,0,0,1,1.854-4.939,5.053,5.053,0,0,1,1.267-1.044,2.787,2.787,0,0,1,3.774.839,5.186,5.186,0,0,1,.951,2.786,8.287,8.287,0,0,1-1.594,5.573,3.722,3.722,0,0,1-2.516,1.612,3.053,3.053,0,0,1-3.262-1.957A6.711,6.711,0,0,1,602.3,399.318Z" transform="translate(-3016.721 616.293)" fill="#ccc"/>
  </g>
</svg>
