<svg xmlns="http://www.w3.org/2000/svg" width="21.858" height="16.285" viewBox="0 0 21.858 16.285">
    <g data-name="Group 3677">
        <path data-name="Path 10193" d="M2.584 15.664a.807.807 0 0 0 1 .59 27.583 27.583 0 0 1 14.677 0 .807.807 0 0 0 1-.59l2.575-10.909a.806.806 0 0 0-1.111-.921L15.631 6.1a.806.806 0 0 1-1.031-.347L11.634.414a.806.806 0 0 0-1.409 0L7.259 5.753a.806.806 0 0 1-1.031.347L1.133 3.834a.806.806 0 0 0-1.111.92z" style="fill:#fc4f08"/>
        <path data-name="Path 10195" d="M9.167 14.487a30.79 30.79 0 0 1 6.445 0" transform="translate(-1.46 -2.28)" style="fill:none;stroke:#fff;stroke-linecap:round;stroke-linejoin:round"/>
    </g>
</svg>
