<svg xmlns="http://www.w3.org/2000/svg" width="19.955" height="19.715" viewBox="0 0 19.955 19.715">
    <g transform="translate(-16.002 -18.893)">
        <path data-name="Path 9938" d="m27.24 19.319 1.267.949a2.019 2.019 0 0 0 1.144.416l1.581.088a2.078 2.078 0 0 1 1.931 1.621l.361 1.541a2.018 2.018 0 0 0 .609 1.054l1.154 1.083a2.078 2.078 0 0 1 .438 2.483l-.714 1.413a2.018 2.018 0 0 0-.211 1.2l.188 1.572a2.078 2.078 0 0 1-1.261 2.183l-1.455.623a2.018 2.018 0 0 0-.932.782l-.867 1.325a2.078 2.078 0 0 1-2.369.862l-1.515-.458a2.018 2.018 0 0 0-1.217 0l-1.515.458a2.078 2.078 0 0 1-2.369-.862l-.867-1.325a2.019 2.019 0 0 0-.932-.782l-1.455-.623a2.078 2.078 0 0 1-1.261-2.183l.188-1.572a2.018 2.018 0 0 0-.211-1.2l-.714-1.413a2.078 2.078 0 0 1 .438-2.483l1.154-1.083a2.018 2.018 0 0 0 .609-1.054l.361-1.541a2.078 2.078 0 0 1 1.931-1.621l1.581-.088a2.018 2.018 0 0 0 1.144-.416l1.267-.949a2.078 2.078 0 0 1 2.521 0z" style="fill-rule:evenodd;fill:#ffe177"/>
        <path data-name="Path 9939" d="m184.372 19.32 1.267.949a2.019 2.019 0 0 0 1.144.416l1.581.088a2.078 2.078 0 0 1 1.931 1.621l.361 1.541a2.018 2.018 0 0 0 .609 1.054l1.154 1.083a2.078 2.078 0 0 1 .438 2.483l-.714 1.413a2.018 2.018 0 0 0-.211 1.2l.188 1.572a2.078 2.078 0 0 1-1.261 2.183l-1.455.623a2.018 2.018 0 0 0-.932.782l-.867 1.325a2.074 2.074 0 0 1-2.163.914 2.085 2.085 0 0 0 1.331-.914l.867-1.325a2.018 2.018 0 0 1 .932-.782l1.455-.623a2.078 2.078 0 0 0 1.261-2.183l-.188-1.572a2.018 2.018 0 0 1 .211-1.2l.714-1.413a2.078 2.078 0 0 0-.438-2.483l-1.154-1.083a2.018 2.018 0 0 1-.609-1.054l-.361-1.541a2.078 2.078 0 0 0-1.931-1.621l-1.581-.088a2.018 2.018 0 0 1-1.144-.416l-1.267-.949a2.127 2.127 0 0 0-.845-.383 2.081 2.081 0 0 1 1.676.383zM182.7 38.007q-.1.021-.193.05l-1.515.458a2.117 2.117 0 0 1-1.038.052q.1-.021.206-.052l1.515-.458a2.005 2.005 0 0 1 1.025-.05z" transform="translate(-157.133 -.001)" style="fill:#ffd064;fill-rule:evenodd"/>
        <circle data-name="Ellipse 45" cx="6.466" cy="6.466" r="6.466" transform="rotate(-45 43.126 -5.938)" style="fill:#ffd064"/>
        <path data-name="Path 9940" d="M106.921 100.454c.14 0 .278 0 .416.014a6.466 6.466 0 0 0 0 12.906 6.35 6.35 0 0 1-.416.014 6.466 6.466 0 0 1 0-12.933z" transform="translate(-80.942 -78.17)" style="fill:#ffc338;fill-rule:evenodd"/>
        <path data-name="Path 9941" d="m168.913 193.162 2.993-3.023a.911.911 0 1 1 1.293 1.284c-1.214 1.225-2.419 2.458-3.639 3.677a.913.913 0 0 1-1.291 0l-2.023-2.023a.913.913 0 0 1 1.291-1.291z" transform="translate(-143.742 -163.869)" style="fill:#eceff1;fill-rule:evenodd"/>
    </g>
</svg>
