<svg xmlns="http://www.w3.org/2000/svg" width="83.152" height="84.417" viewBox="0 0 83.152 84.417">
  <g id="Group_3709" data-name="Group 3709" transform="translate(-7293 -7992)">
    <path id="Path_10218" data-name="Path 10218" d="M327.208,298.253a39.6,39.6,0,1,1-39.62-39.653A39.586,39.586,0,0,1,327.208,298.253Z" transform="translate(7048.945 7738.643)" fill="#fc4f08"/>
    <path id="Path_10219" data-name="Path 10219" d="M305.292,267.353A40.648,40.648,0,1,1,265.047,226.7,40.744,40.744,0,0,1,305.292,267.353Zm-3.96-.033A36.736,36.736,0,1,0,264.636,304,36.9,36.9,0,0,0,301.331,267.32Z" transform="translate(7069.003 7765.303)"/>
    <path id="Path_10220" data-name="Path 10220" d="M380.525,517.716a25.98,25.98,0,0,1,7.559.641,15.158,15.158,0,0,1,10.649,14.182,1.986,1.986,0,0,1-2.4,2.169,2.074,2.074,0,0,1-1.594-2.186,10.7,10.7,0,0,0-6.672-9.893,12.517,12.517,0,0,0-4.125-.887c-2.268-.148-4.536-.049-6.82-.033a11.011,11.011,0,0,0-10.78,9.7c-.049.493-.1.986-.131,1.463a1.991,1.991,0,0,1-1.906,1.988,1.89,1.89,0,0,1-2.021-1.923,19.718,19.718,0,0,1,.69-4.6A14.939,14.939,0,0,1,377.387,517.7C378.438,517.716,379.474,517.716,380.525,517.716Z" transform="translate(6953.443 7522.121)"/>
    <path id="Path_10221" data-name="Path 10221" d="M369.4,384.929a4.749,4.749,0,1,1-4.766-4.733A4.787,4.787,0,0,1,369.4,384.929Z" transform="translate(6955.435 7637.029)"/>
    <path id="Path_10222" data-name="Path 10222" d="M533.249,384.8a4.731,4.731,0,0,1-4.7,4.7,4.75,4.75,0,1,1,4.7-4.7Z" transform="translate(6818.467 7637.193)"/>
  </g>
</svg>
