<svg xmlns="http://www.w3.org/2000/svg" width="34.959" height="22.246" viewBox="0 0 34.959 22.246">
  <defs>
    <style>
      .cls-1 {
        fill: #fc4f08;
      }
    </style>
  </defs>
  <g id="Group_3674" data-name="Group 3674" transform="translate(-3979.763 -9619.089)">
    <path id="Path_10190" data-name="Path 10190" class="cls-1" d="M328.257,315.8a.794.794,0,1,1-.795-.795.794.794,0,0,1,.795.795" transform="translate(3668.986 9317.594)"/>
    <path id="Path_10191" data-name="Path 10191" class="cls-1" d="M234.923,222.46a.795.795,0,1,1-.795-.794.795.795,0,0,1,.795.794" transform="translate(3755.964 9404.573)"/>
    <path id="Path_10192" data-name="Path 10192" class="cls-1" d="M127.648,124.678a.8.8,0,0,0,.636-.779v-6.437a.794.794,0,0,0-.795-.794h-7.151v2.384a.794.794,0,0,1-1.589,0v-2.384H94.12a.794.794,0,0,0-.795.794V123.9a.8.8,0,0,0,.636.779,3.177,3.177,0,0,1,0,6.226.8.8,0,0,0-.636.779v6.437a.794.794,0,0,0,.795.794h24.63V136.53a.794.794,0,0,1,1.589,0v2.384h7.151a.794.794,0,0,0,.795-.794v-6.437a.8.8,0,0,0-.636-.779,3.177,3.177,0,0,1,0-6.226Zm-23.993-2.449a2.386,2.386,0,1,1-1.685.7A2.384,2.384,0,0,1,103.655,122.229Zm6.356,11.124a2.386,2.386,0,1,1,1.685-.7A2.382,2.382,0,0,1,110.011,133.353Zm2.151-9.767-9.534,9.534A.795.795,0,0,1,101.5,132l9.534-9.534a.795.795,0,0,1,1.123,1.124Zm8.178,9.767a.794.794,0,0,1-1.589,0v-1.589a.794.794,0,0,1,1.589,0Zm0-4.767a.794.794,0,0,1-1.589,0V127a.794.794,0,0,1,1.589,0Zm0-4.767a.794.794,0,0,1-1.589,0V122.23a.794.794,0,0,1,1.589,0Z" transform="translate(3886.438 9502.421)"/>
  </g>
</svg>
