<svg xmlns="http://www.w3.org/2000/svg" width="83.152" height="84.418" viewBox="0 0 83.152 84.418">
    <g data-name="Group 3699">
        <path data-name="Path 10218" d="M327.208 298.253a39.6 39.6 0 1 1-39.62-39.653 39.586 39.586 0 0 1 39.62 39.653z" transform="translate(-244.055 -253.357)" style="fill:#fc4f08"/>
        <path data-name="Path 10219" d="M81.295 40.656A40.648 40.648 0 1 1 41.05.003a40.744 40.744 0 0 1 40.245 40.653zm-3.96-.033a36.736 36.736 0 1 0-36.696 36.68 36.9 36.9 0 0 0 36.695-36.68z"/>
        <path data-name="Path 10220" d="M40.968 47.837a25.98 25.98 0 0 1 7.559.641A15.158 15.158 0 0 1 59.176 62.66a1.986 1.986 0 0 1-2.4 2.169 2.074 2.074 0 0 1-1.594-2.186 10.7 10.7 0 0 0-6.672-9.893 12.517 12.517 0 0 0-4.125-.887c-2.268-.148-4.536-.049-6.82-.033a11.011 11.011 0 0 0-10.78 9.7c-.049.493-.1.986-.131 1.463a1.991 1.991 0 0 1-1.906 1.988 1.89 1.89 0 0 1-2.021-1.923 19.718 19.718 0 0 1 .69-4.6A14.939 14.939 0 0 1 37.83 47.821c1.051.016 2.087.016 3.138.016z"/>
        <path data-name="Path 10221" d="M31.835 29.958a4.749 4.749 0 1 1-4.766-4.733 4.787 4.787 0 0 1 4.766 4.733z"/>
        <path data-name="Path 10222" d="M58.716 29.993a4.731 4.731 0 0 1-4.7 4.7 4.75 4.75 0 1 1 4.7-4.7z"/>
    </g>
</svg>
